HIERARCHY
ROOT Hips
{
	OFFSET 0.000000 0.000000 0.000000 
	CHANNELS 6 Xposition Yposition Zposition Zrotation Yrotation Xrotation
	JOINT LeftUpLeg
	{
		OFFSET 1.363060 -1.794630 0.839290 
		CHANNELS 3 Zrotation Yrotation Xrotation
		JOINT LeftLeg
		{
			OFFSET 2.448110 -6.726130 0.000000 
			CHANNELS 3 Zrotation Yrotation Xrotation
			JOINT LeftFoot
			{
				OFFSET 2.562200 -7.039590 0.000000 
				CHANNELS 3 Zrotation Yrotation Xrotation
				JOINT LeftToeBase
				{
					OFFSET 0.157640 -0.433110 2.322550 
					CHANNELS 3 Zrotation Yrotation Xrotation
					End Site
					{
						OFFSET 0.000000 0.000000 0.000000 
					}
				}
			}
		}
	}
	JOINT RightUpLeg
	{
		OFFSET -1.305520 -1.794630 0.839290 
		CHANNELS 3 Zrotation Yrotation Xrotation
		JOINT RightLeg
		{
			OFFSET -2.542530 -6.985550 0.000000 
			CHANNELS 3 Zrotation Yrotation Xrotation
			JOINT RightFoot
			{
				OFFSET -2.568260 -7.056230 0.000000 
				CHANNELS 3 Zrotation Yrotation Xrotation
				JOINT RightToeBase
				{
					OFFSET -0.164730 -0.452590 2.363150 
					CHANNELS 3 Zrotation Yrotation Xrotation
					End Site
					{
						OFFSET 0.000000 0.000000 0.000000 
					}
				}
			}
		}
	}
	JOINT Spine
	{
		OFFSET 0.028270 2.035590 -0.193380 
		CHANNELS 3 Zrotation Yrotation Xrotation
		JOINT Spine1
		{
			OFFSET 0.056720 2.048850 -0.042750 
			CHANNELS 3 Zrotation Yrotation Xrotation
			JOINT Neck1
			{
				OFFSET -0.054170 1.746240 0.172020 
				CHANNELS 3 Zrotation Yrotation Xrotation
				JOINT Head
				{
					OFFSET 0.104070 1.761360 -0.123970 
					CHANNELS 3 Zrotation Yrotation Xrotation
					End Site
					{
						OFFSET 0.000000 0.000000 0.000000 
					}
				}
			}
			JOINT LeftArm
			{
				OFFSET 3.362410 1.200890 -0.311210 
				CHANNELS 3 Zrotation Yrotation Xrotation
				JOINT LeftForeArm
				{
					OFFSET 4.983000 -0.000000 -0.000000 
					CHANNELS 3 Zrotation Yrotation Xrotation
					JOINT LeftHand
					{
						OFFSET 3.483560 -0.000000 -0.000000 
						CHANNELS 3 Zrotation Yrotation Xrotation
						JOINT LeftHandIndex1
						{
							OFFSET 0.715260 -0.000000 -0.000000 
							CHANNELS 3 Zrotation Yrotation Xrotation
							End Site
							{
								OFFSET 0.000000 0.000000 0.000000 
							}
						}
					}
				}
			}
			JOINT RightArm
			{
				OFFSET -3.136600 1.374050 -0.404650 
				CHANNELS 3 Zrotation Yrotation Xrotation
				JOINT RightForeArm
				{
					OFFSET -5.241900 -0.000000 -0.000000 
					CHANNELS 3 Zrotation Yrotation Xrotation
					JOINT RightHand
					{
						OFFSET -3.444170 -0.000000 -0.000000 
						CHANNELS 3 Zrotation Yrotation Xrotation
						JOINT RightHandIndex1
						{
							OFFSET -0.622530 -0.000000 -0.000000 
							CHANNELS 3 Zrotation Yrotation Xrotation
							End Site
							{
								OFFSET 0.000000 0.000000 0.000000 
							}
						}
					}
				}
			}
		}
	}
}
MOTION
Frames: 6
Frame Time: 0.041667
0.761589 9.818596 -0.829865 1.571404 -4.164645 -19.136802 -4.270213 -0.600957 -106.977355 35.862282 15.348429 140.845782 0.509267 -4.435281 14.118605 0.006400 -0.517100 -1.420900 5.797510 3.997431 -115.176382 -38.025061 -14.115063 145.127187 3.414458 -18.895907 21.718090 -0.738900 -5.491600 15.316100 -2.127065 2.033078 27.322091 -2.291401 1.526882 -12.132541 3.102048 -1.127602 -0.972071 2.343000 -0.234300 2.191600 -112.828445 -84.124633 75.854570 126.430782 -56.227360 -92.370675 0.197095 -0.685481 -4.951584 -7.125000 0.000000 0.000000 49.695627 71.882013 15.579742 -116.810126 55.812292 -89.115553 -0.668834 2.742868 3.528992 7.125000 0.000000 0.000000 
0.760905 9.821335 -0.831821 1.526326 -4.212089 -19.186085 -4.240713 -0.464602 -106.904258 35.861086 15.361297 140.830406 0.520888 -4.532662 14.250584 0.010500 -0.661400 -1.817400 5.889741 4.055193 -115.036167 -38.017156 -14.123528 145.079151 3.422621 -18.942276 21.713727 -0.763900 -5.581300 15.574400 -2.134840 2.050929 27.396287 -2.324381 1.536439 -12.046525 3.395452 -1.254863 -1.139498 2.430000 -0.288100 2.149500 -112.938782 -84.174493 76.206214 126.309301 -56.281777 -92.280092 0.191063 -0.676754 -3.675906 -7.125000 0.000000 0.000000 49.648608 71.859409 15.556424 -116.898143 55.800141 -89.171357 -0.666864 2.742760 4.216690 7.125000 0.000000 0.000000 
0.761100 9.825052 -0.833484 1.496398 -4.261784 -19.268468 -4.237122 -0.327160 -106.780304 35.858645 15.374655 140.809135 0.529160 -4.592563 14.369271 0.014600 -0.780800 -2.145800 5.977756 4.046754 -114.841326 -38.008031 -14.137675 145.036284 3.417877 -18.909397 21.675678 -0.770700 -5.605700 15.644700 -2.166058 2.050315 27.430496 -2.363179 1.530704 -12.016379 3.715194 -1.364292 -1.413219 2.528000 -0.334200 2.037700 -112.974777 -84.157336 76.519707 126.186837 -56.335079 -92.190222 0.186343 -0.669427 -2.423737 -7.125000 0.000000 0.000000 49.799439 71.919619 15.795741 -117.013305 55.734695 -89.273612 -0.666561 2.752495 4.815796 7.125000 0.000000 0.000000 
0.761492 9.826324 -0.834462 1.440111 -4.280684 -19.244076 -4.187740 -0.263252 -106.812872 35.860219 15.382134 140.796030 0.521512 -4.501231 14.373740 0.013000 -0.737100 -2.025800 6.078369 4.099271 -114.832762 -38.004464 -14.139862 145.018726 3.422526 -18.933048 21.674719 -0.760000 -5.567400 15.534100 -2.175783 2.049144 27.403246 -2.398854 1.529380 -12.051963 4.123902 -1.452833 -1.635286 2.674800 -0.368100 1.954200 -112.979160 -84.122972 76.855559 126.035194 -56.400352 -92.081311 0.182264 -0.661114 -1.256732 -7.125000 0.000000 0.000000 49.782290 71.885145 15.902526 -117.260779 55.680095 -89.443546 -0.672747 2.751749 5.264559 7.125000 0.000000 0.000000 
0.761296 9.827106 -0.836516 1.351301 -4.337371 -19.184289 -4.106852 -0.107214 -106.889758 35.870893 15.389420 140.809583 0.511417 -4.405287 14.360048 0.013200 -0.740600 -2.035200 6.175955 4.298143 -114.884487 -37.998500 -14.128980 145.003077 3.449226 -19.045020 21.660726 -0.754100 -5.546200 15.473300 -2.172888 2.078750 27.414534 -2.453084 1.547072 -12.026829 4.477785 -1.554762 -1.825425 2.799600 -0.410100 1.896600 -113.089503 -84.144291 77.373838 125.981110 -56.433637 -92.049384 0.177996 -0.645690 -0.098929 -7.125000 0.000000 0.000000 49.603074 71.774177 15.836922 -117.516040 55.657075 -89.600314 -0.677059 2.745397 5.760871 7.125000 0.000000 0.000000 
0.761785 9.830823 -0.839157 1.462197 -4.319925 -19.173719 -4.252051 -0.122815 -106.803165 35.869173 15.387740 140.800354 0.489913 -4.226304 14.178584 0.014800 -0.786500 -2.161600 6.004327 4.185075 -114.958010 -38.005332 -14.130233 145.022561 3.431211 -18.998834 21.717313 -0.777300 -5.629200 15.712100 -2.249867 2.090971 27.467741 -2.453054 1.552073 -11.947825 4.778954 -1.652601 -2.116429 2.900500 -0.451400 1.800900 -113.269662 -84.199782 78.010133 125.979161 -56.446058 -92.053486 0.174263 -0.631713 1.133043 -7.125000 0.000000 0.000000 49.445048 71.691649 15.794946 -117.741332 55.639021 -89.731422 -0.688126 2.733450 6.296149 7.125000 0.000000 0.000000 
